<svg xmlns="http://www.w3.org/2000/svg" width="2943.2" height="368" viewBox="0 0 294.32 36.8">
  <defs>
    <style>
      .cls-1 {
        fill: #fff;
      }

      .cls-2 {
        fill: #f0d7a5;
      }
    </style>
  </defs>
  <g id="Calque_2" data-name="Calque 2">
    <g id="GoldBroker_Fond_transparent" data-name="GoldBroker / Fond transparent">
      <g>
        <path class="cls-1" d="M73.78,1.4a28.08,28.08,0,0,1,5.35.5,17.22,17.22,0,0,1,4.6,1.45L83,7a27.88,27.88,0,0,0-4.5-1.35,22.14,22.14,0,0,0-4.65-.5q-6.21,0-9.75,3.65T60.53,19.05q0,6.4,3.35,9.85t10.05,3.4a26.56,26.56,0,0,0,3.2-.2,21.27,21.27,0,0,0,2.8-.6V20.65h4.2v13.4a22.48,22.48,0,0,1-4.85,1.3,31.92,31.92,0,0,1-5.9.55A21.06,21.06,0,0,1,66,34.7a15.8,15.8,0,0,1-5.5-3.45,15.22,15.22,0,0,1-3.45-5.35,19.5,19.5,0,0,1-1.15-6.85,20.51,20.51,0,0,1,1.2-7.15,15.52,15.52,0,0,1,3.55-5.55,15.81,15.81,0,0,1,5.6-3.65A20.27,20.27,0,0,1,73.78,1.4ZM113,23.3a14.06,14.06,0,0,1-.8,4.8,11.86,11.86,0,0,1-2.25,4,10.9,10.9,0,0,1-3.7,2.7,11.41,11.41,0,0,1-4.9,1,11.61,11.61,0,0,1-5-1,11.1,11.1,0,0,1-3.65-2.7,12.7,12.7,0,0,1-2.3-4,15.74,15.74,0,0,1,0-9.6,12,12,0,0,1,2.3-3.95,10.7,10.7,0,0,1,3.65-2.75,11.61,11.61,0,0,1,5-1,11.41,11.41,0,0,1,4.9,1,10.52,10.52,0,0,1,3.7,2.75,11.27,11.27,0,0,1,2.25,3.95A14.06,14.06,0,0,1,113,23.3Zm-4.5,0a13.27,13.27,0,0,0-.45-3.5A8.36,8.36,0,0,0,106.71,17a5.91,5.91,0,0,0-2.2-1.95,7.44,7.44,0,0,0-6.3,0A6.39,6.39,0,0,0,96,17a9.11,9.11,0,0,0-1.3,2.85,13.27,13.27,0,0,0-.45,3.5,13.43,13.43,0,0,0,.45,3.55A9.79,9.79,0,0,0,96,29.7a6.57,6.57,0,0,0,2.25,1.9,7.44,7.44,0,0,0,6.3,0,6.06,6.06,0,0,0,2.2-1.9,8.93,8.93,0,0,0,1.35-2.85A13.43,13.43,0,0,0,108.51,23.3ZM123,29.1a3.9,3.9,0,0,0,.55,2.25,2.41,2.41,0,0,0,2,.75,8.93,8.93,0,0,0,2.25-.3l.2,3.35a11.41,11.41,0,0,1-3.65.55q-3.15,0-4.5-1.85a7.5,7.5,0,0,1-1.35-4.55V0H123Zm29,6.2h-4.25V32a12,12,0,0,1-3.25,2.7,9.05,9.05,0,0,1-4.6,1.1,8,8,0,0,1-3.8-.9,9,9,0,0,1-2.95-2.55,12.73,12.73,0,0,1-2-3.9,17.92,17.92,0,0,1-.65-4.95,14.89,14.89,0,0,1,.9-5.35,11.36,11.36,0,0,1,2.6-4,11.09,11.09,0,0,1,3.85-2.5,13.55,13.55,0,0,1,4.85-.85,14.66,14.66,0,0,1,2.55.2,15,15,0,0,1,2.2.45V0H152Zm-10.85-3.1a6.65,6.65,0,0,0,3.75-1.05,11.49,11.49,0,0,0,2.6-2.25V15.05a7.93,7.93,0,0,0-1.95-.5,17,17,0,0,0-2.3-.15,7.91,7.91,0,0,0-6,2.35c-1.46,1.57-2.2,3.82-2.2,6.75a12.26,12.26,0,0,0,1.45,6.35A5.12,5.12,0,0,0,141.18,32.2Zm40.9-6.2a7.88,7.88,0,0,1-1,3.8,8.76,8.76,0,0,1-2.6,2.95,13.76,13.76,0,0,1-4.1,1.9,19.86,19.86,0,0,1-5.25.65h-9.4V2h10.3a15.25,15.25,0,0,1,4.4.6,9.63,9.63,0,0,1,3.4,1.65,7,7,0,0,1,2.2,2.55,6.94,6.94,0,0,1,.8,3.3,6.75,6.75,0,0,1-1.95,4.9A12.05,12.05,0,0,1,174,18a11.27,11.27,0,0,1,5.85,2.75A6.8,6.8,0,0,1,182.08,26Zm-4.4-.15a4.7,4.7,0,0,0-.7-2.6,5.35,5.35,0,0,0-1.9-1.85,8.67,8.67,0,0,0-2.8-1.1,16.12,16.12,0,0,0-3.4-.35h-4.7V31.7h5.3a10.67,10.67,0,0,0,6-1.45A5,5,0,0,0,177.68,25.85Zm-9.25-9.5a11.71,11.71,0,0,0,3.15-.4,7.88,7.88,0,0,0,2.55-1.15,5.48,5.48,0,0,0,1.7-1.8,4.75,4.75,0,0,0,.6-2.4,4.17,4.17,0,0,0-1.9-3.75,8.53,8.53,0,0,0-4.85-1.25h-5.5V16.35ZM201.5,15h-1.15a9.91,9.91,0,0,0-4.6,1,8.44,8.44,0,0,0-3.25,3.25v16H188v-24h4.3v4.6a8.67,8.67,0,0,1,2.75-3.65,7.75,7.75,0,0,1,4.6-1.25,5.83,5.83,0,0,1,1.85.25Zm26,8.3a14.31,14.31,0,0,1-.8,4.8,11.86,11.86,0,0,1-2.25,4,11,11,0,0,1-3.7,2.7,12.63,12.63,0,0,1-9.85,0,11,11,0,0,1-3.65-2.7,12.51,12.51,0,0,1-2.3-4,15.73,15.73,0,0,1,0-9.6,11.87,11.87,0,0,1,2.3-3.95,10.61,10.61,0,0,1,3.65-2.75,12.63,12.63,0,0,1,9.85,0,10.61,10.61,0,0,1,3.7,2.75,11.27,11.27,0,0,1,2.25,3.95A14.31,14.31,0,0,1,227.47,23.3Zm-4.5,0a13.27,13.27,0,0,0-.45-3.5A8.36,8.36,0,0,0,221.17,17,6,6,0,0,0,219,15a7.44,7.44,0,0,0-6.3,0A6.39,6.39,0,0,0,210.42,17a8.89,8.89,0,0,0-1.3,2.85,13.27,13.27,0,0,0-.45,3.5,13.43,13.43,0,0,0,.45,3.55,9.53,9.53,0,0,0,1.3,2.85,6.57,6.57,0,0,0,2.25,1.9,7.44,7.44,0,0,0,6.3,0,6.14,6.14,0,0,0,2.2-1.9,8.93,8.93,0,0,0,1.35-2.85A13.43,13.43,0,0,0,223,23.3Zm10.24,12V0h4.5V22.65l9.6-11.35h5.2L242.36,23.1l11,12.2h-5.45l-10.2-11.9V35.3Zm32.64-24.5a9.85,9.85,0,0,1,4,.75,8.12,8.12,0,0,1,4.65,5.15,11.64,11.64,0,0,1,.6,3.8,16.76,16.76,0,0,1-.5,4.05H259.45a11.18,11.18,0,0,0,.5,3.15,7,7,0,0,0,1.35,2.45,6.31,6.31,0,0,0,2.4,1.55,10.4,10.4,0,0,0,3.6.55,15.71,15.71,0,0,0,3.65-.4,20.4,20.4,0,0,0,3.2-1l.6,3.35A15.78,15.78,0,0,1,271,35.35a20.71,20.71,0,0,1-4.35.45,13.48,13.48,0,0,1-5.25-.95,10.68,10.68,0,0,1-3.65-2.65,11.64,11.64,0,0,1-2.2-4,16.16,16.16,0,0,1-.7-4.85,15.71,15.71,0,0,1,.75-4.9,12.2,12.2,0,0,1,2.15-4,9.82,9.82,0,0,1,3.5-2.7A10.32,10.32,0,0,1,265.85,10.8Zm-.15,3.35a5.57,5.57,0,0,0-2.55.55,6,6,0,0,0-1.9,1.5A7,7,0,0,0,260,18.45a10,10,0,0,0-.55,2.65h11.3a10.14,10.14,0,0,0-.05-2.65,5.73,5.73,0,0,0-.8-2.25,4.28,4.28,0,0,0-1.65-1.5A5.4,5.4,0,0,0,265.7,14.15Zm28.62.85h-1.15a9.91,9.91,0,0,0-4.6,1,8.44,8.44,0,0,0-3.25,3.25v16h-4.5v-24h4.3v4.6a8.75,8.75,0,0,1,2.75-3.65,7.78,7.78,0,0,1,4.6-1.25,5.83,5.83,0,0,1,1.85.25Z"/>
        <path class="cls-2" d="M39.54,27.3h-7a1,1,0,0,0-1,.8L30,35.6a1,1,0,0,0,1,1.2h10a1,1,0,0,0,1-1.2l-1.52-7.5A1,1,0,0,0,39.54,27.3Z"/>
        <path class="cls-2" d="M24.54,27.3h-7a1,1,0,0,0-1,.8L15,35.6a1,1,0,0,0,1,1.2H26.05a1,1,0,0,0,1-1.2l-1.52-7.5A1,1,0,0,0,24.54,27.3Z"/>
        <path class="cls-2" d="M9.54,27.3h-7a1,1,0,0,0-1,.8L0,35.6a1,1,0,0,0,1,1.2H11.05a1,1,0,0,0,1-1.2l-1.52-7.5A1,1,0,0,0,9.54,27.3Z"/>
        <path class="cls-2" d="M39.54,14.3h-7a1,1,0,0,0-1,.8L30,22.6a1,1,0,0,0,1,1.2h10a1,1,0,0,0,1-1.2l-1.52-7.5A1,1,0,0,0,39.54,14.3Z"/>
        <path class="cls-2" d="M24.54,14.3h-7a1,1,0,0,0-1,.8L15,22.6a1,1,0,0,0,1,1.2H26.05a1,1,0,0,0,1-1.2l-1.52-7.5A1,1,0,0,0,24.54,14.3Z"/>
        <path class="cls-2" d="M39.54,1.3h-7a1,1,0,0,0-1,.8L30,9.6a1,1,0,0,0,1,1.2h10a1,1,0,0,0,1-1.2L40.52,2.1A1,1,0,0,0,39.54,1.3Z"/>
      </g>
    </g>
  </g>
</svg>
